<svg xmlns="http://www.w3.org/2000/svg" width="64" height="64" enable-background="new 0 0 64 64" viewBox="0 0 64 64"><path d="M8.578 29.985c.031-.357.068-.714.114-1.069.024-.177.049-.354.076-.532.056-.355.12-.709.191-1.061.031-.155.06-.311.094-.466.014-.06.022-.121.037-.182C6.358 26.909 4.207 29.208 4.207 32s2.151 5.091 4.883 5.325c-.014-.061-.023-.122-.037-.182-.034-.155-.063-.312-.094-.466-.071-.353-.136-.706-.191-1.061-.027-.178-.052-.355-.076-.533-.046-.355-.083-.712-.114-1.069-.013-.159-.03-.318-.041-.477C8.504 33.026 8.483 32.513 8.483 32s.021-1.026.055-1.538C8.548 30.303 8.565 30.144 8.578 29.985zM27.275 8.975c.385-.086.78-.161 1.176-.214.128-.021.256-.042.395-.053.438-.064.877-.107 1.326-.149.064 0 .139-.011.214-.011C30.92 8.504 31.455 8.483 32 8.483s1.079.021 1.624.064c.065 0 .129.011.193.011.449.042.897.085 1.347.149.129.011.257.033.374.053.407.054.802.128 1.209.214.116.021.245.042.373.075.075.011.139.021.204.042C37.088 6.355 34.79 4.207 32 4.207s-5.088 2.148-5.323 4.885c.064-.021.128-.032.192-.042C27.008 9.017 27.136 8.996 27.275 8.975zM55.421 34.01c-.032.364-.064.716-.117 1.08-.021.171-.043.342-.074.513-.055.363-.118.727-.193 1.08-.032.149-.054.31-.086.459-.021.064-.031.118-.043.182 2.737-.235 4.886-2.533 4.886-5.323s-2.148-5.088-4.886-5.323c.012.053.022.117.043.182.032.149.054.31.086.459.075.353.139.716.193 1.08.031.171.053.342.074.513.053.353.085.716.117 1.08.011.161.032.31.043.471.032.513.054 1.026.054 1.539s-.021 1.026-.054 1.539C55.453 33.7 55.432 33.849 55.421 34.01zM36.672 55.036c-.343.075-.695.139-1.037.192-.193.032-.385.053-.577.085-.321.032-.642.075-.973.096-.193.021-.396.043-.588.054-.396.021-.792.032-1.187.043-.096 0-.203.01-.31.01s-.214-.01-.32-.01c-.396-.011-.78-.021-1.176-.043-.203-.011-.396-.032-.599-.054-.32-.021-.642-.064-.952-.096-.203-.032-.396-.054-.587-.085-.342-.053-.685-.117-1.026-.182-.16-.032-.321-.064-.481-.096-.064-.021-.128-.032-.182-.042.235 2.736 2.533 4.885 5.323 4.885s5.088-2.148 5.324-4.885c-.065.01-.118.021-.183.042C36.992 54.983 36.831 55.004 36.672 55.036z"/><path d="M61.762,60.313H44.599C55.429,55.473,63,44.605,63,32C63,14.91,49.09,1,32,1S1,14.91,1,32s13.91,31,31,31
			c2.223,0,4.391-0.24,6.482-0.688h23.279c0.442,0,0.801-0.448,0.801-1S62.204,60.313,61.762,60.313z M53.35,24.61c0,0,0,0,0-0.01
			c0.011,0,0.011,0,0.011,0h0.06c0.32-0.05,0.65-0.08,1.03-0.08c4.13,0,7.479,3.35,7.479,7.48s-3.35,7.48-7.479,7.48
			c-0.32,0-0.62-0.03-0.9-0.07c-0.01,0-0.01,0-0.01,0c-0.04,0-0.1,0-0.15-0.01c-0.01,0-0.02,0-0.029-0.01c0,0,0,0-0.011,0
			C49.7,38.86,46.97,35.7,46.97,32S49.7,25.14,53.35,24.61z M32,2.07c4.13,0,7.48,3.36,7.48,7.48c0,0.38-0.03,0.71-0.08,1.04
			c0,0,0,0.01,0,0.02c0,0,0,0.01,0,0.02c0,0.01,0,0.01-0.011,0.02c0,0,0,0,0,0.01C38.86,14.3,35.7,17.03,32,17.03
			s-6.86-2.73-7.39-6.38c0,0,0,0,0-0.01c-0.01,0-0.01,0-0.01,0v-0.06c-0.05-0.32-0.08-0.66-0.08-1.03C24.52,5.43,27.87,2.07,32,2.07
			z M10.65,39.39c0,0,0,0-0.01,0c-0.01,0.01-0.02,0.01-0.03,0.01c-0.05,0.01-0.11,0.01-0.15,0.01c-0.29,0.04-0.59,0.07-0.91,0.07
			c-4.12,0-7.48-3.35-7.48-7.48s3.36-7.48,7.48-7.48c0.37,0,0.71,0.03,1.03,0.08h0.06c0.01,0.01,0.01,0.01,0.01,0.01
			c3.65,0.53,6.38,3.69,6.38,7.39S14.3,38.86,10.65,39.39z M32,61.93c-4.13,0-7.48-3.36-7.48-7.48c0-0.37,0.03-0.71,0.08-1.03v-0.06
			c0,0,0,0,0.01-0.01c0.53-3.65,3.69-6.38,7.39-6.38s6.86,2.73,7.39,6.37c0,0.01,0,0.01,0,0.01c0.011,0.01,0.011,0.01,0.011,0.02
			c0,0.01,0,0.02,0,0.02c0,0.01,0,0.02,0,0.02c0.05,0.33,0.08,0.66,0.08,1.04C39.48,58.57,36.13,61.93,32,61.93z M40.55,34.14h-6.41
			v6.41c0,1.18-0.96,2.14-2.14,2.14c-1.18,0-2.14-0.96-2.14-2.14v-6.41h-6.41c-1.18,0-2.14-0.96-2.14-2.14s0.96-2.14,2.14-2.14h6.41
			v-6.41c0-1.18,0.96-2.14,2.14-2.14c1.18,0,2.14,0.96,2.14,2.14v6.41h6.41c1.181,0,2.141,0.96,2.141,2.14S41.73,34.14,40.55,34.14z
			"/></svg>